<?xml version="1.0" encoding="UTF-8" standalone="no"?>
<!DOCTYPE svg PUBLIC "-//W3C//DTD SVG 1.1//EN" "http://www.w3.org/Graphics/SVG/1.1/DTD/svg11.dtd">
<svg width="100%" height="100%" viewBox="0 0 1239 1251" version="1.1" xmlns="http://www.w3.org/2000/svg" xmlns:xlink="http://www.w3.org/1999/xlink" xml:space="preserve" xmlns:serif="http://www.serif.com/" style="fill-rule:evenodd;clip-rule:evenodd;stroke-linejoin:round;stroke-miterlimit:2;">
    <g transform="matrix(1,0,0,1,-1634.8,-4233.94)">
        <g transform="matrix(1,0,0,1,-0.110934,-0.3336)">
            <g transform="matrix(4.16667,0,0,4.16667,1634.94,4234.28)">
                <path d="M37.55,250.7C37.528,267.782 41.407,284.645 48.89,300C126.771,294.057 187.688,228.318 187.69,150.21C187.69,148.21 187.69,146.32 187.57,144.39C175.589,140.191 162.985,138.047 150.29,138.047C88.479,138.047 37.607,188.889 37.57,250.7L37.55,250.7Z" style="fill:white;fill-opacity:0.7;fill-rule:nonzero;"/>
            </g>
            <g transform="matrix(4.16667,0,0,4.16667,1634.94,4234.28)">
                <path d="M37.48,0C26.15,-0.007 14.855,1.265 3.81,3.79C1.274,14.83 -0.007,26.122 -0.007,37.45C-0.007,119.877 67.783,187.722 150.21,187.79C161.54,187.797 172.835,186.525 183.88,184C186.419,172.926 187.697,161.601 187.69,150.24C187.69,150.23 187.69,150.22 187.69,150.21C187.69,67.807 119.883,-0 37.48,-0L37.48,0Z" style="fill:white;fill-opacity:0.8;fill-rule:nonzero;"/>
            </g>
            <g transform="matrix(4.16667,0,0,4.16667,1634.94,4234.28)">
                <path d="M297.18,65.63C297.174,50.23 284.5,37.56 269.1,37.56C253.696,37.56 241.02,50.236 241.02,65.64C241.02,68.539 241.469,71.419 242.35,74.18L242.29,74.18C250.693,106.166 244.626,140.282 225.71,167.41C261.105,146.807 286.599,112.621 296.25,72.82C296.869,70.474 297.182,68.057 297.18,65.63Z" style="fill:white;fill-rule:nonzero;"/>
            </g>
            <g transform="matrix(4.16667,0,0,4.16667,1634.94,4234.28)">
                <path d="M187.57,144.39C148.579,130.723 105.078,139.536 74.48,167.3C97.45,180.741 123.597,187.809 150.21,187.77C161.536,187.782 172.827,186.518 183.87,184L183.98,183.52C184.193,182.56 184.4,181.6 184.6,180.64C184.67,180.31 184.74,179.98 184.8,179.64C185.053,178.373 185.29,177.1 185.51,175.82L185.51,175.76C185.737,174.427 185.947,173.093 186.14,171.76C186.14,171.48 186.21,171.19 186.25,170.91C186.39,169.89 186.52,168.867 186.64,167.84C186.69,167.4 186.74,166.96 186.78,166.52C186.873,165.633 186.96,164.747 187.04,163.86C187.087,163.373 187.127,162.887 187.16,162.4C187.227,161.54 187.287,160.677 187.34,159.81C187.34,159.32 187.4,158.81 187.43,158.34C187.43,157.42 187.52,156.5 187.55,155.57L187.55,154.29C187.55,152.94 187.61,151.59 187.61,150.24L187.61,147.15C187.61,146.12 187.6,145.3 187.57,144.39Z" style="fill:white;fill-opacity:0.6;fill-rule:nonzero;"/>
            </g>
        </g>
    </g>
</svg>
